<svg viewBox="0 0 1018.232 1054.237" xmlns="http://www.w3.org/2000/svg"><path d="M301.5 21.333c49.438.075 96.065 12.035 137.2 33.173l-1.694-.79 1.74.936c96.62 55.235 211.77 89.09 334.545 92.353l.96.02h160.572v347.013H777.997c-121.984.074-236.458 32.155-335.5 88.296l3.385-1.766c-42.87 25.784-94.614 41.035-149.92 41.035h-2.98C130.322 617.58 0 484.763 0 321.51 0 155.725 134.395 21.33 300.18 21.33c.464 0 .928.002 1.393.004h-.072zm94.426 111.508c-27.514-14.03-60.004-22.266-94.414-22.3h-.45c-116.516 0-210.972 94.455-210.972 210.972 0 114.366 91 207.477 204.54 210.877l.314.006h.724c38.786 0 75.058-10.762 105.993-29.462l-.917.515 1.026-.625c108.33-61.672 238-98.055 376.162-98.127h67.594V236.232h-72.882c-138.896-3.592-268.2-41.476-380.737-105.448l4.018 2.102zm538.806 399.556h-89.206v-425.96h89.206zM294.23 189.844c71.684 0 129.795 58.11 129.795 129.795s-58.11 129.794-129.795 129.794c-71.684 0-129.795-58.11-129.795-129.795.076-71.654 58.142-129.72 129.788-129.796h.007zm0 170.384c22.417 0 40.59-18.172 40.59-40.59s-18.173-40.588-40.59-40.588c-22.417 0-40.59 18.172-40.59 40.59.026 22.405 18.184 40.563 40.588 40.588h.002zM635 364.242H464.614v-89.206H635zM334.907 917.768c-70.63-.178-129.683-49.54-144.725-115.64l-.19-.998-54.372-244.336 87.066-19.402 54.46 244.782c6.04 26.752 29.602 46.432 57.762 46.432h.235-.012c6.863-.085 13.414-1.303 19.512-3.476l-.42.13h.31c23.467-8.057 40.03-29.935 40.03-55.68 0-4.596-.527-9.068-1.525-13.36l.078.397-44.603-191.794 86.887-20.205L480 736.678c2.36 9.893 3.715 21.25 3.715 32.922 0 64.72-41.62 119.72-99.555 139.694l-1.04.31c-14.106 5.043-30.382 8.035-47.333 8.207l-.08.002zm170.875 127.565h-.47c-70.367 0-130.58-43.474-155.242-105.03l-.397-1.125-22.302-55.174 82.74-33.363 22.302 55.577c11.752 29.468 40.044 49.913 73.11 49.913.203 0 .404 0 .606-.002h5.41c43.85 0 79.395-35.546 79.395-79.394v-110.17-.446c0-83.262 67.496-150.76 150.758-150.76h.002c83.467.102 151.103 67.74 151.205 151.196v.456c0 57.365 46.478 103.875 103.83 103.925h21.415v89.206h-21.41c-106.665 0-193.133-86.467-193.133-193.13v-.612.03c0-34.117-27.658-61.774-61.775-61.774s-61.775 27.658-61.775 61.775v110.303c0 93.115-75.485 168.6-168.6 168.6h-5.665z"/></svg>