<svg fill="none" height="49" viewBox="0 0 48 49" width="48" xmlns="http://www.w3.org/2000/svg"><path d="m44 24.5c0 11.0457-8.9543 20-20 20s-20-8.9543-20-20 8.9543-20 20-20 20 8.9543 20 20z" fill="#1575e5"/><path d="m34.7322 12.7679c-.3903.676-1.1156 1.0379-1.8451.9973l-1.0673 1.6323c2.5594 2.2007 4.1802 5.4623 4.1802 9.1025 0 4.9193-2.9601 9.1472-7.1962 10.9998 2.6386 1.1538 4.7822 3.2291 6.0239 5.8191-3.1206 2.0129-6.8373 3.1811-10.8269 3.1811-3.9897 0-7.7064-1.1682-10.827-3.1811 1.2416-2.5898 3.3849-4.6649 6.0232-5.8187-4.2366-1.8525-7.197-6.0806-7.197-11.0002 0-3.6402 1.6208-6.9018 4.1802-9.1025l-1.0673-1.6323c-.7295.0406-1.4548-.3213-1.8451-.9973-.5523-.9566-.2245-2.1798.7321-2.732.9566-.55232 2.1797-.22457 2.732.732.3903.676.3411 1.4851-.0589 2.0965l.7931 1.5687c1.8801-1.2228 4.124-1.9331 6.5339-1.9331s4.6538.7103 6.5339 1.9331l.7931-1.5687c-.4-.6114-.4492-1.4205-.0589-2.0965.5523-.95657 1.7754-1.28432 2.732-.732.9566.5522 1.2844 1.7754.7321 2.732z" fill="#a6cfff"/><g clip-rule="evenodd" fill="#1575e5" fill-rule="evenodd"><path d="m21 27.5c.5523 0 1 .4477 1 1 0 1.1046.8954 2 2 2s2-.8954 2-2c0-.5523.4477-1 1-1s1 .4477 1 1c0 2.2091-1.7909 4-4 4s-4-1.7909-4-4c0-.5523.4477-1 1-1z"/><path d="m24 24.5c2.2091 0 4-1.7909 4-4s-1.7909-4-4-4-4 1.7909-4 4 1.7909 4 4 4zm1-4c.5523 0 1-.4477 1-1s-.4477-1-1-1-1 .4477-1 1 .4477 1 1 1z"/></g></svg>