<svg fill="none" height="49" viewBox="0 0 48 49" width="48" xmlns="http://www.w3.org/2000/svg"><path d="m44 24.5c0 11.0457-8.9543 20-20 20s-20-8.9543-20-20 8.9543-20 20-20 20 8.9543 20 20z" fill="#1575e5"/><path d="m15.9791 15.5743c-.1835-1.835-1.5578-3.0743-3.4791-3.0743-2.0664 0-3.5 1.4336-3.5 3.5 0 1.237.08922 2.0279.17757 2.5078.07835.4256.38902.7363.81461.8146.47992.0884 1.27082.1776 2.50782.1776.2095 0 .4125-.0147.6081-.0434-.7112 1.5333-1.1081 3.242-1.1081 5.0434 0 4.9196 2.9604 9.1477 7.197 11.0002-2.6383 1.1538-4.7816 3.2289-6.0232 5.8187 3.1206 2.0129 6.8373 3.1811 10.827 3.1811 3.9896 0 7.7063-1.1682 10.8269-3.1811-1.2417-2.59-3.3853-4.6653-6.0239-5.8191 4.2361-1.8526 7.1962-6.0805 7.1962-10.9998 0-1.8014-.3969-3.5101-1.1081-5.0434.1956.0287.3986.0434.6081.0434 1.237 0 2.0279-.0892 2.5078-.1776.4256-.0783.7363-.389.8146-.8146.0884-.4799.1776-1.2708.1776-2.5078 0-2.0664-1.4336-3.5-3.5-3.5-1.9213 0-3.2956 1.2393-3.4791 3.0743-2.1255-1.9113-4.9374-3.0743-8.0209-3.0743s-5.8954 1.163-8.0209 3.0743z" fill="#a6cfff"/><g fill="#1575e5"><path clip-rule="evenodd" d="m21 27.5c.5523 0 1 .4477 1 1 0 1.1046.8954 2 2 2s2-.8954 2-2c0-.5523.4477-1 1-1s1 .4477 1 1c0 2.2091-1.7909 4-4 4s-4-1.7909-4-4c0-.5523.4477-1 1-1z" fill-rule="evenodd"/><path d="m20 22c0 .8284-.6716 1.5-1.5 1.5s-1.5-.6716-1.5-1.5.6716-1.5 1.5-1.5 1.5.6716 1.5 1.5z"/><path d="m31 22c0 .8284-.6716 1.5-1.5 1.5s-1.5-.6716-1.5-1.5.6716-1.5 1.5-1.5 1.5.6716 1.5 1.5z"/></g></svg>